<svg width="39" height="48" viewBox="0 0 39 48" fill="none" xmlns="http://www.w3.org/2000/svg">
<path d="M12.3864 39H3.86364V9.90909H12.8977C15.6723 9.90909 18.0445 10.4867 20.0142 11.642C21.9934 12.7973 23.5085 14.4545 24.5597 16.6136C25.6108 18.7727 26.1364 21.3627 26.1364 24.3835C26.1364 27.4328 25.5966 30.0511 24.517 32.2386C23.447 34.4167 21.8845 36.0881 19.8295 37.2528C17.7841 38.4176 15.303 39 12.3864 39ZM6.51989 36.6136H12.2301C14.7301 36.6136 16.8229 36.1212 18.5085 35.1364C20.1941 34.1515 21.4583 32.7453 22.3011 30.9176C23.1439 29.09 23.5653 26.9119 23.5653 24.3835C23.5559 21.8741 23.1392 19.715 22.3153 17.9062C21.5009 16.0975 20.2888 14.7102 18.679 13.7443C17.0786 12.7784 15.0994 12.2955 12.7415 12.2955H6.51989V36.6136Z" fill="black"/>
<path d="M32.9915 19C32.7263 18.0341 32.3381 17.1297 31.8267 16.2869C31.3153 15.4347 30.6809 14.6913 29.9233 14.0568C29.1752 13.4129 28.3087 12.911 27.3239 12.5511C26.3485 12.1913 25.2595 12.0114 24.0568 12.0114C22.1629 12.0114 20.4678 12.5038 18.9716 13.4886C17.4754 14.4735 16.2917 15.8939 15.4205 17.75C14.5587 19.6061 14.1278 21.8409 14.1278 24.4545C14.1278 27.0587 14.5634 29.2888 15.4347 31.1449C16.3059 33.0009 17.4991 34.4261 19.0142 35.4205C20.5388 36.4053 22.2812 36.8977 24.2415 36.8977C26.0313 36.8977 27.6127 36.5 28.9858 35.7045C30.3589 34.9091 31.429 33.7727 32.196 32.2955C32.9725 30.8182 33.3513 29.0616 33.3324 27.0256L34.1847 27.2955H24.8665V24.9091H35.9176V27.2955C35.9176 29.7765 35.4157 31.9214 34.4119 33.7301C33.4081 35.5388 32.0303 36.9356 30.2784 37.9205C28.5265 38.9053 26.5142 39.3977 24.2415 39.3977C21.7036 39.3977 19.483 38.7869 17.5795 37.5653C15.6761 36.3343 14.1941 34.6013 13.1335 32.3665C12.0824 30.1222 11.5568 27.4848 11.5568 24.4545C11.5568 22.1723 11.8598 20.1127 12.4659 18.2756C13.072 16.4384 13.929 14.8665 15.0369 13.5597C16.1544 12.2528 17.4754 11.2538 19 10.5625C20.5246 9.86174 22.2102 9.51136 24.0568 9.51136C25.6477 9.51136 27.1013 9.76231 28.4176 10.2642C29.7434 10.7661 30.9081 11.4574 31.9119 12.3381C32.9252 13.2093 33.7538 14.2178 34.3977 15.3636C35.0511 16.5 35.4915 17.7121 35.7188 19H32.9915Z" fill="black"/>
</svg>
